<?xml version="1.0" encoding="utf-8"?>
<!-- Generator: Adobe Illustrator 24.3.0, SVG Export Plug-In . SVG Version: 6.00 Build 0)  -->
<svg version="1.1" id="Layer_1" xmlns="http://www.w3.org/2000/svg" xmlns:xlink="http://www.w3.org/1999/xlink" x="0px" y="0px"
	 viewBox="0 0 1411 480" style="enable-background:new 0 0 1411 480;" xml:space="preserve">
<style type="text/css">
	.st0{opacity:0.2;}
	.st1{fill:none;stroke:#FFFFFF;stroke-width:2;}
	.st2{fill:none;stroke:#FFFFFF;stroke-width:2;stroke-linecap:square;}
	.st3{fill:none;}
	.st4{fill:none;stroke:#FFFFFF;stroke-width:2;stroke-linecap:round;}
	.st5{fill-rule:evenodd;clip-rule:evenodd;fill:#FFFFFF;}
	.st6{fill:#5D6D81;}
	.st7{fill:none;stroke:#FFFFFF;stroke-width:2;stroke-linecap:round;stroke-linejoin:round;}
	.st8{fill:none;stroke:#FFFFFF;stroke-width:2;stroke-linejoin:round;}
	.st9{fill-rule:evenodd;clip-rule:evenodd;fill:#5D6D81;}
	.st10{fill:none;stroke:#FFFFFF;stroke-width:2;stroke-linecap:round;stroke-linejoin:round;stroke-dasharray:2,4,2,4,2,4;}
	.st11{fill:none;stroke:#FFFFFF;stroke-width:2;stroke-linecap:round;stroke-linejoin:round;stroke-dasharray:3;}
	.st12{fill:#C6E3F8;}
	.st13{fill:#444444;}
</style>
<g class="st0">
	<g>
		<path class="st1" d="M280,137.6v1.4c0,2.2,1.8,4,4,4h4 M280,128.4V128c0-3.9,3.1-7,7-7h2c3.9,0,7,3.1,7,7v0.4"/>
		<path class="st2" d="M283,128.1c-2.7-0.6-5.3,1.2-5.9,3.9s1.2,5.3,3.9,5.9c0.7,0.1,1.3,0.1,2,0V128.1z M293,137.9
			c2.7,0.6,5.3-1.2,5.9-3.9s-1.2-5.3-3.9-5.9c-0.7-0.1-1.3-0.1-2,0V137.9z"/>
	</g>
	<g>
		<path class="st1" d="M761.8,187.6c1.3,2,4,3.4,7.2,3.4c0.6,0,1.2-0.1,1.7-0.1l4.3,2.1v-4c1.2-1.1,2-2.4,2-4c0-1.6-0.8-3-2.1-4"/>
		<path class="st2" d="M765,172c-5.5,0-10,3.6-10,8c0,1.8,0.8,3.4,2,4.8v5.2l4.8-2.4c1,0.3,2.1,0.4,3.2,0.4c5.5,0,10-3.6,10-8
			S770.5,172,765,172z"/>
	</g>
	<path class="st3" d="M355.1,260h-36.2c-1.6,0-2.9-1.3-2.9-3V205c0-1.6,1.3-3,2.9-3h36.2c1.6,0,2.9,1.3,2.9,3V257
		C358,258.7,356.7,260,355.1,260z"/>
	<path class="st4" d="M355.1,260h-36.2c-1.6,0-2.9-1.3-2.9-3V205c0-1.6,1.3-3,2.9-3h36.2c1.6,0,2.9,1.3,2.9,3V257
		C358,258.7,356.7,260,355.1,260z"/>
	<path class="st3" d="M316,208h42v44h-42V208z"/>
	<path class="st4" d="M316,208h42v44h-42V208z M320,216l4-4 M320,221l2-2 M326,215l3-3 M320,226l9-9 M333,213l1-1 M338,205h1"/>
	<path class="st3" d="M341,256c0,1.7-1.3,3-3,3s-3-1.3-3-3s1.3-3,3-3S341,254.3,341,256z"/>
	<path class="st4" d="M341,256c0,1.7-1.3,3-3,3s-3-1.3-3-3s1.3-3,3-3S341,254.3,341,256z"/>
	<path class="st3" d="M1024.1,80h-36.2c-1.6,0-2.9-1.3-2.9-3V25c0-1.6,1.3-3,2.9-3h36.2c1.6,0,2.9,1.3,2.9,3V77
		C1027,78.7,1025.7,80,1024.1,80z"/>
	<path class="st4" d="M1024.1,80h-36.2c-1.6,0-2.9-1.3-2.9-3V25c0-1.6,1.3-3,2.9-3h36.2c1.6,0,2.9,1.3,2.9,3V77
		C1027,78.7,1025.7,80,1024.1,80z"/>
	<path class="st3" d="M985,28h42v44h-42V28z"/>
	<path class="st4" d="M985,28h42v44h-42V28z M989,36l4-4 M989,41l2-2 M995,35l3-3 M989,46l9-9 M1002,33l1-1 M1007,25h1"/>
	<path class="st3" d="M1010,76c0,1.7-1.3,3-3,3s-3-1.3-3-3s1.3-3,3-3S1010,74.3,1010,76z"/>
	<path class="st4" d="M1010,76c0,1.7-1.3,3-3,3s-3-1.3-3-3s1.3-3,3-3S1010,74.3,1010,76z"/>
	<path class="st3" d="M693.5,326.7l-15.6-2.7c-7.8-1.4-15.8-1.4-23.7,0l-15.6,2.7c-0.7,0.1-1.4-0.4-1.5-1.1c0-0.1,0-0.1,0-0.2v-34.9
		c0-0.8,0.7-1.4,1.5-1.3l15.6,2.7c7.8,1.4,15.8,1.4,23.7,0l15.6-2.7c0.7-0.1,1.4,0.4,1.5,1.1c0,0.1,0,0.1,0,0.2v34.9
		C695,326.3,694.3,326.9,693.5,326.7z"/>
	<path class="st4" d="M693.5,326.7l-15.6-2.7c-7.8-1.4-15.8-1.4-23.7,0l-15.6,2.7c-0.7,0.1-1.4-0.4-1.5-1.1c0-0.1,0-0.1,0-0.2v-34.9
		c0-0.8,0.7-1.4,1.5-1.3l15.6,2.7c7.8,1.4,15.8,1.4,23.7,0l15.6-2.7c0.7-0.1,1.4,0.4,1.5,1.1c0,0.1,0,0.1,0,0.2v34.9
		C695,326.3,694.3,326.9,693.5,326.7z"/>
	<path class="st3" d="M652,328h28v3h-28V328z"/>
	<path class="st4" d="M652,328h28v3h-28V328z M666,323v5 M644,302l4-4 M644,307l2-2 M650,301l3-3 M644,312l9-9 M657,299l1-1"/>
	<path class="st3" d="M1247,98h4v7h-4V98z"/>
	<path class="st1" d="M1247,98h4v7h-4V98z"/>
	<path class="st3" d="M1289,98h4v7h-4V98z"/>
	<path class="st1" d="M1289,98h4v7h-4V98z"/>
	<path class="st3" d="M1251.5,125h-5.2c-0.2,0-0.3-0.1-0.3-0.3c0,0,0,0,0,0v-19.2c0-0.3,0.2-0.5,0.5-0.5h4.7c2.1,0,3.8,1.7,3.8,3.8
		c0,0,0,0,0,0v12.7C1255,123.4,1253.4,125,1251.5,125z"/>
	<path class="st1" d="M1251.5,125h-5.2c-0.2,0-0.3-0.1-0.3-0.3c0,0,0,0,0,0v-19.2c0-0.3,0.2-0.5,0.5-0.5h4.7c2.1,0,3.8,1.7,3.8,3.8
		c0,0,0,0,0,0v12.7C1255,123.4,1253.4,125,1251.5,125z"/>
	<path class="st3" d="M1246,125c-2.8,0-5-2.2-5-5v-10c0-2.8,2.2-5,5-5V125z"/>
	<path class="st1" d="M1246,125c-2.8,0-5-2.2-5-5v-10c0-2.8,2.2-5,5-5V125z"/>
	<path class="st3" d="M1294,125v-20c2.8,0,5,2.2,5,5v10C1299,122.8,1296.8,125,1294,125z"/>
	<path class="st1" d="M1294,125v-20c2.8,0,5,2.2,5,5v10C1299,122.8,1296.8,125,1294,125z"/>
	<path class="st3" d="M1293.7,125h-5.2c-1.9,0-3.5-1.6-3.5-3.5v-12.7c0-2.1,1.7-3.8,3.8-3.8c0,0,0,0,0,0h4.9c0.2,0,0.3,0.1,0.3,0.3
		c0,0,0,0,0,0v19.4C1294,124.9,1293.9,125,1293.7,125z"/>
	<path class="st1" d="M1293.7,125h-5.2c-1.9,0-3.5-1.6-3.5-3.5v-12.7c0-2.1,1.7-3.8,3.8-3.8c0,0,0,0,0,0h4.9c0.2,0,0.3,0.1,0.3,0.3
		c0,0,0,0,0,0v19.4C1294,124.9,1293.9,125,1293.7,125z"/>
	<path class="st4" d="M1252,109h3 M1252,113h3 M1252,117h3 M1252,121h3 M1285,109h3 M1285,113h3 M1285,117h3 M1285,121h3"/>
	<path class="st3" d="M1284.5,84.5c-0.7,0.7-1.8,0.7-2.5,0c-2.6-2.3-8.4-3.5-11.9-3.5c-3.5,0-9.3,1.2-11.9,3.5
		c-0.7,0.6-1.8,0.6-2.5,0l-3.1-2.8c-0.8-0.8-0.8-2.1,0-2.8c4.1-3.7,12-5.8,17.6-5.8s13.5,2.1,17.6,5.8c0.8,0.7,0.8,2.1,0,2.8
		L1284.5,84.5z"/>
	<path class="st4" d="M1284.5,84.5c-0.7,0.7-1.8,0.7-2.5,0c-2.6-2.3-8.4-3.5-11.9-3.5c-3.5,0-9.3,1.2-11.9,3.5
		c-0.7,0.6-1.8,0.6-2.5,0l-3.1-2.8c-0.8-0.8-0.8-2.1,0-2.8c4.1-3.7,12-5.8,17.6-5.8s13.5,2.1,17.6,5.8c0.8,0.7,0.8,2.1,0,2.8
		L1284.5,84.5z"/>
	<path class="st3" d="M1255.5,84.5l-3.1-2.8c-0.2-0.2-0.4-0.5-0.5-0.8c-3.7,4.1-5.9,9.6-5.9,15.6V98h6v-1.6c0-4.4,1.6-8.5,4.3-11.5
		C1256,84.8,1255.7,84.7,1255.5,84.5z"/>
	<path class="st1" d="M1255.5,84.5l-3.1-2.8c-0.2-0.2-0.4-0.5-0.5-0.8c-3.7,4.1-5.9,9.6-5.9,15.6V98h6v-1.6c0-4.4,1.6-8.5,4.3-11.5
		C1256,84.8,1255.7,84.7,1255.5,84.5z"/>
	<path class="st3" d="M1287.9,81.2c-0.1,0.2-0.2,0.3-0.4,0.5l-3.1,2.8c-0.3,0.3-0.8,0.5-1.2,0.5c2.9,3,4.8,7.1,4.8,11.4V98h6v-1.6
		C1294,90.6,1291.7,85.2,1287.9,81.2z"/>
	<path class="st1" d="M1287.9,81.2c-0.1,0.2-0.2,0.3-0.4,0.5l-3.1,2.8c-0.3,0.3-0.8,0.5-1.2,0.5c2.9,3,4.8,7.1,4.8,11.4V98h6v-1.6
		C1294,90.6,1291.7,85.2,1287.9,81.2z"/>
	<path class="st3" d="M112,330h4v7h-4V330z"/>
	<path class="st1" d="M112,330h4v7h-4V330z"/>
	<path class="st3" d="M154,330h4v7h-4V330z"/>
	<path class="st1" d="M154,330h4v7h-4V330z"/>
	<path class="st3" d="M116.5,357h-5.2c-0.2,0-0.3-0.1-0.3-0.3l0,0v-19.2c0-0.3,0.2-0.5,0.5-0.5h4.7c2.1,0,3.8,1.7,3.8,3.8
		c0,0,0,0,0,0v12.7C120,355.4,118.4,357,116.5,357L116.5,357z"/>
	<path class="st1" d="M116.5,357h-5.2c-0.2,0-0.3-0.1-0.3-0.3l0,0v-19.2c0-0.3,0.2-0.5,0.5-0.5h4.7c2.1,0,3.8,1.7,3.8,3.8
		c0,0,0,0,0,0v12.7C120,355.4,118.4,357,116.5,357L116.5,357z"/>
	<path class="st3" d="M111,357c-2.8,0-5-2.2-5-5v-10c0-2.8,2.2-5,5-5V357z"/>
	<path class="st1" d="M111,357c-2.8,0-5-2.2-5-5v-10c0-2.8,2.2-5,5-5V357z"/>
	<path class="st3" d="M159,357v-20c2.8,0,5,2.2,5,5v10C164,354.8,161.8,357,159,357z"/>
	<path class="st1" d="M159,357v-20c2.8,0,5,2.2,5,5v10C164,354.8,161.8,357,159,357z"/>
	<path class="st3" d="M158.7,357h-5.2c-1.9,0-3.5-1.6-3.5-3.5v-12.7c0-2.1,1.7-3.8,3.8-3.8c0,0,0,0,0,0h4.9c0.2,0,0.3,0.1,0.3,0.3
		c0,0,0,0,0,0v19.4C159,356.9,158.9,357,158.7,357L158.7,357z"/>
	<path class="st1" d="M158.7,357h-5.2c-1.9,0-3.5-1.6-3.5-3.5v-12.7c0-2.1,1.7-3.8,3.8-3.8c0,0,0,0,0,0h4.9c0.2,0,0.3,0.1,0.3,0.3
		c0,0,0,0,0,0v19.4C159,356.9,158.9,357,158.7,357L158.7,357z"/>
	<path class="st4" d="M117,341h3 M117,345h3 M117,349h3 M117,353h3 M150,341h3 M150,345h3 M150,349h3 M150,353h3"/>
	<path class="st3" d="M149.5,316.5c-0.7,0.7-1.8,0.7-2.5,0c-2.6-2.3-8.4-3.5-11.9-3.5s-9.3,1.2-11.9,3.5c-0.7,0.6-1.8,0.6-2.5,0
		l-3.1-2.9c-0.8-0.8-0.8-2.1,0-2.8c4.1-3.7,12-5.8,17.6-5.8s13.5,2.1,17.6,5.8c0.8,0.7,0.8,2,0,2.8L149.5,316.5L149.5,316.5z"/>
	<path class="st4" d="M149.5,316.5c-0.7,0.7-1.8,0.7-2.5,0c-2.6-2.3-8.4-3.5-11.9-3.5s-9.3,1.2-11.9,3.5c-0.7,0.6-1.8,0.6-2.5,0
		l-3.1-2.9c-0.8-0.8-0.8-2.1,0-2.8c4.1-3.7,12-5.8,17.6-5.8s13.5,2.1,17.6,5.8c0.8,0.7,0.8,2,0,2.8L149.5,316.5L149.5,316.5z"/>
	<path class="st3" d="M120.5,316.5l-3.1-2.9c-0.2-0.2-0.4-0.5-0.5-0.8c-3.7,4.1-5.9,9.6-5.9,15.6v1.6h6v-1.6c0-4.4,1.6-8.5,4.3-11.5
		C121,316.8,120.7,316.7,120.5,316.5z"/>
	<path class="st1" d="M120.5,316.5l-3.1-2.9c-0.2-0.2-0.4-0.5-0.5-0.8c-3.7,4.1-5.9,9.6-5.9,15.6v1.6h6v-1.6c0-4.4,1.6-8.5,4.3-11.5
		C121,316.8,120.7,316.7,120.5,316.5z"/>
	<path class="st3" d="M152.9,313.2c-0.1,0.2-0.2,0.3-0.4,0.5l-3.1,2.9c-0.3,0.3-0.8,0.5-1.2,0.5c2.9,3,4.8,7.1,4.8,11.4v1.6h6v-1.6
		C159,322.6,156.7,317.2,152.9,313.2L152.9,313.2z"/>
	<path class="st1" d="M152.9,313.2c-0.1,0.2-0.2,0.3-0.4,0.5l-3.1,2.9c-0.3,0.3-0.8,0.5-1.2,0.5c2.9,3,4.8,7.1,4.8,11.4v1.6h6v-1.6
		C159,322.6,156.7,317.2,152.9,313.2L152.9,313.2z"/>
	<path class="st3" d="M1110.9,444h-43.7c-1.7,0-3.1-1.4-3.1-3.1v-41.7c0-1.7,1.4-3.1,3.1-3.1h43.7c1.7,0,3.1,1.4,3.1,3.1v41.7
		C1114,442.6,1112.6,444,1110.9,444z"/>
	<path class="st1" d="M1110.9,444h-43.7c-1.7,0-3.1-1.4-3.1-3.1v-41.7c0-1.7,1.4-3.1,3.1-3.1h43.7c1.7,0,3.1,1.4,3.1,3.1v41.7
		C1114,442.6,1112.6,444,1110.9,444z"/>
	<path class="st3" d="M1068,444h42v10h-42V444z"/>
	<path class="st4" d="M1068,444h42v10h-42V444z"/>
	<path class="st3" d="M1096,447h11v4h-11V447z"/>
	<path class="st1" d="M1096,447h11v4h-11V447z"/>
	<path class="st3" d="M1103,451h4v-4h-4V451z"/>
	<path class="st1" d="M1103,451h4v-4h-4V451z"/>
	<path class="st3" d="M1106.1,430h-34.3c-2.1,0-3.9-1.7-3.9-3.9v-21.3c0-2.1,1.7-3.9,3.9-3.9h34.3c2.1,0,3.9,1.7,3.9,3.9v21.3
		C1110,428.3,1108.3,430,1106.1,430z"/>
	<path class="st1" d="M1106.1,430h-34.3c-2.1,0-3.9-1.7-3.9-3.9v-21.3c0-2.1,1.7-3.9,3.9-3.9h34.3c2.1,0,3.9,1.7,3.9,3.9v21.3
		C1110,428.3,1108.3,430,1106.1,430z"/>
	<path class="st4" d="M1073,410l4-4 M1073,415l2-2 M1079,409l3-3 M1073,420l9-9 M1086,407l1-1"/>
	<path class="st3" d="M1070,438h4v3h-4V438z"/>
	<path class="st1" d="M1070,438h4v3h-4V438z M1090,437h11 M1107,437h3"/>
	<path class="st3" d="M1100,435h7v4h-7V435z"/>
	<path class="st1" d="M1100,435h7v4h-7V435z"/>
	<path class="st3" d="M1405,20h-22l-4.2,6.4c-0.5,1-0.8,2.2-0.8,3.3v24.5c0,1.2,0.3,2.3,0.8,3.3l4.2,6.4h22l4.2-6.4
		c0.5-1,0.8-2.2,0.8-3.3V29.8c0-1.2-0.3-2.3-0.8-3.3L1405,20z"/>
	<path class="st4" d="M1405,20h-22l-4.2,6.4c-0.5,1-0.8,2.2-0.8,3.3v24.5c0,1.2,0.3,2.3,0.8,3.3l4.2,6.4h22l4.2-6.4
		c0.5-1,0.8-2.2,0.8-3.3V29.8c0-1.2-0.3-2.3-0.8-3.3L1405,20z"/>
	<path class="st3" d="M1403.6,54h-19.2c-1.3,0-2.4-1.1-2.4-2.4c0,0,0,0,0,0V30.4c0-1.3,1.1-2.4,2.4-2.4l0,0h19.2
		c1.3,0,2.4,1.1,2.4,2.4c0,0,0,0,0,0v21.2C1406,52.9,1404.9,54,1403.6,54C1403.6,54,1403.6,54,1403.6,54z"/>
	<path class="st4" d="M1403.6,54h-19.2c-1.3,0-2.4-1.1-2.4-2.4c0,0,0,0,0,0V30.4c0-1.3,1.1-2.4,2.4-2.4l0,0h19.2
		c1.3,0,2.4,1.1,2.4,2.4c0,0,0,0,0,0v21.2C1406,52.9,1404.9,54,1403.6,54C1403.6,54,1403.6,54,1403.6,54z"/>
	<path class="st5" d="M1395.5,61h-2.9c-0.3,0-0.5-0.2-0.5-0.5c0,0,0,0,0,0v-2.9c0-0.3,0.2-0.5,0.5-0.5h2.9c0.3,0,0.5,0.2,0.5,0.5
		v2.9C1396,60.8,1395.8,61,1395.5,61L1395.5,61z"/>
	<path class="st4" d="M1395.5,61h-2.9c-0.3,0-0.5-0.2-0.5-0.5c0,0,0,0,0,0v-2.9c0-0.3,0.2-0.5,0.5-0.5h2.9c0.3,0,0.5,0.2,0.5,0.5
		v2.9C1396,60.8,1395.8,61,1395.5,61L1395.5,61z"/>
	<path class="st3" d="M1383,13h22v7h-22V13z"/>
	<path class="st4" d="M1383,13h22v7h-22V13z"/>
	<path class="st3" d="M1383,64h22v7h-22V64z"/>
	<path class="st4" d="M1383,64h22v7h-22V64z M1386,36l4-4 M1386,41l2-2 M1392,35l3-3 M1386,46l9-9 M1399,33l1-1"/>
	<path class="st3" d="M467,428h-22l-4.2,6.4c-0.5,1-0.8,2.2-0.8,3.3v24.5c0,1.2,0.3,2.3,0.8,3.3l4.2,6.4h22l4.2-6.4
		c0.5-1,0.8-2.2,0.8-3.3v-24.5c0-1.2-0.3-2.3-0.8-3.3L467,428z"/>
	<path class="st4" d="M467,428h-22l-4.2,6.4c-0.5,1-0.8,2.2-0.8,3.3v24.5c0,1.2,0.3,2.3,0.8,3.3l4.2,6.4h22l4.2-6.4
		c0.5-1,0.8-2.2,0.8-3.3v-24.5c0-1.2-0.3-2.3-0.8-3.3L467,428z"/>
	<path class="st3" d="M465.6,462h-19.2c-1.3,0-2.4-1.1-2.4-2.4v-21.2c0-1.3,1.1-2.4,2.4-2.4h19.2c1.3,0,2.4,1.1,2.4,2.4v21.2
		C468,460.9,466.9,462,465.6,462z"/>
	<path class="st4" d="M465.6,462h-19.2c-1.3,0-2.4-1.1-2.4-2.4v-21.2c0-1.3,1.1-2.4,2.4-2.4h19.2c1.3,0,2.4,1.1,2.4,2.4v21.2
		C468,460.9,466.9,462,465.6,462z"/>
	<path class="st5" d="M457.5,469h-2.9c-0.3,0-0.5-0.2-0.5-0.5v0v-2.9c0-0.3,0.2-0.5,0.5-0.5h2.9c0.3,0,0.5,0.2,0.5,0.5v2.9
		C458,468.8,457.8,469,457.5,469L457.5,469z"/>
	<path class="st4" d="M457.5,469h-2.9c-0.3,0-0.5-0.2-0.5-0.5v0v-2.9c0-0.3,0.2-0.5,0.5-0.5h2.9c0.3,0,0.5,0.2,0.5,0.5v2.9
		C458,468.8,457.8,469,457.5,469L457.5,469z"/>
	<path class="st3" d="M445,421h22v7h-22V421z"/>
	<path class="st4" d="M445,421h22v7h-22V421z"/>
	<path class="st3" d="M445,472h22v7h-22V472z"/>
	<path class="st4" d="M445,472h22v7h-22V472z M448,444l4-4 M448,449l2-2 M454,443l3-3 M448,454l9-9 M461,441l1-1"/>
	<g transform="translate(1230 5)">
		<path class="st1" d="M4.2,14.9l-3.1,5.2c-0.4,0.7,0.2,1.7,1,1.5L11,20l8.8,1.6c0.8,0.2,1.5-0.8,1-1.5l-3.1-5.2"/>
		<circle class="st2" cx="11" cy="9" r="9"/>
		<circle class="st2" cx="11" cy="10" r="4"/>
		<circle class="st6" cx="11" cy="10" r="1"/>
	</g>
	<g>
		<path class="st2" d="M58,212v2 M53,213v2 M63,213v2"/>
		<path class="st1" d="M67,219h4v4c0,1.1-0.9,2-2,2h-2.5"/>
		<path class="st2" d="M58,231c-5,0-9-4-9-9v-3h18v3C67,227,63,231,58,231z M49,234h18"/>
	</g>
	<g transform="translate(166 169)">
		<path class="st1" d="M17.9,6L16,22H4L2.1,6"/>
		<path class="st2" d="M15,2l-1-2H6L5,2H0v4h20V2H15z"/>
		<circle class="st2" cx="10" cy="13" r="3"/>
	</g>
	<g transform="translate(1075 320)">
		<path class="st1" d="M17.9,6L16,22H4L2.1,6"/>
		<path class="st2" d="M15,2l-1-2H6L5,2H0v4h20V2H15z"/>
		<circle class="st2" cx="10" cy="13" r="3"/>
	</g>
	<g>
		<path class="st1" d="M171,56l5,6l-2.5,2.9 M167,56l-3,11l5,5l5-5l-3-11"/>
		<path class="st2" d="M171,56h-4l-2-4h8L171,56z"/>
	</g>
	<path class="st3" d="M1263,245h-50c-2.2,0-4,1.8-4,4v2h58v-2C1267,246.8,1265.2,245,1263,245"/>
	<path class="st7" d="M1263,245h-50c-2.2,0-4,1.8-4,4v2h58v-2C1267,246.8,1265.2,245,1263,245z"/>
	<path class="st3" d="M1261,216c0-12.7-10.3-23-23-23s-23,10.3-23,23s10.3,23,23,23S1261,228.7,1261,216"/>
	<path class="st7" d="M1261,216c0-12.7-10.3-23-23-23s-23,10.3-23,23s10.3,23,23,23S1261,228.7,1261,216z"/>
	<path class="st3" d="M1246,216c0-4.4-3.6-8-8-8s-8,3.6-8,8s3.6,8,8,8S1246,220.4,1246,216"/>
	<path class="st7" d="M1246,216c0-4.4-3.6-8-8-8s-8,3.6-8,8s3.6,8,8,8S1246,220.4,1246,216z M1234,216c0-2.2,1.8-4,4-4"/>
	<path class="st3" d="M1238,239c-5.2,0-10.2-1.8-14.3-5l-8.7,11h46l-8.7-11C1248.2,237.2,1243.2,239,1238,239"/>
	<path class="st7" d="M1238,239c-5.2,0-10.2-1.8-14.3-5l-8.7,11h46l-8.7-11C1248.2,237.2,1243.2,239,1238,239z M1216,248h-6.9
		 M1260,248h6.9"/>
	<path class="st3" d="M1238,193c-12.7,0-23,10.3-23,23c2.1,0,3.9-1.5,4.3-3.5c1.7-8.8,9.4-15.5,18.7-15.5s17,6.7,18.7,15.5
		c0.4,2.1,2.2,3.5,4.3,3.5C1261,203.3,1250.7,193,1238,193"/>
	<path class="st7" d="M1238,193c-12.7,0-23,10.3-23,23c2.1,0,3.9-1.5,4.3-3.5c1.7-8.8,9.4-15.5,18.7-15.5s17,6.7,18.7,15.5
		c0.4,2.1,2.2,3.5,4.3,3.5C1261,203.3,1250.7,193,1238,193z"/>
	<path class="st3" d="M67.8,146H46.2c-0.2,0-0.3-0.3-0.1-0.4l1.8-1.3c1.9-1.4,2.9-3.9,2.3-6.3h13.6v0c-0.6,2.4,0.4,4.9,2.3,6.3
		l1.8,1.3C68.1,145.7,68,146,67.8,146z"/>
	<path class="st4" d="M67.8,146H46.2c-0.2,0-0.3-0.3-0.1-0.4l1.8-1.3c1.9-1.4,2.9-3.9,2.3-6.3h13.6v0c-0.6,2.4,0.4,4.9,2.3,6.3
		l1.8,1.3C68.1,145.7,68,146,67.8,146z"/>
	<path class="st3" d="M82.5,138h-51c-1.9,0-3.5-1.6-3.5-3.5c0,0,0,0,0,0v-37c0-1.9,1.6-3.5,3.5-3.5l0,0h51c1.9,0,3.5,1.6,3.5,3.5
		l0,0v37C86,136.4,84.4,138,82.5,138C82.5,138,82.5,138,82.5,138z"/>
	<path class="st4" d="M82.5,138h-51c-1.9,0-3.5-1.6-3.5-3.5c0,0,0,0,0,0v-37c0-1.9,1.6-3.5,3.5-3.5l0,0h51c1.9,0,3.5,1.6,3.5,3.5
		l0,0v37C86,136.4,84.4,138,82.5,138C82.5,138,82.5,138,82.5,138z"/>
	<path class="st3" d="M86,129H28V97.5c0-1.9,1.6-3.5,3.5-3.5l0,0h51c1.9,0,3.5,1.6,3.5,3.5l0,0V129z"/>
	<path class="st4" d="M86,129H28V97.5c0-1.9,1.6-3.5,3.5-3.5l0,0h51c1.9,0,3.5,1.6,3.5,3.5l0,0V129z M32,102l4-4 M32,107l2-2
		 M38,101l3-3 M32,112l9-9 M45,99l1-1"/>
	<path class="st3" d="M68.5,149h-23c-0.8,0-1.5-0.7-1.5-1.5s0.7-1.5,1.5-1.5h23c0.8,0,1.5,0.7,1.5,1.5S69.3,149,68.5,149z"/>
	<path class="st4" d="M68.5,149h-23c-0.8,0-1.5-0.7-1.5-1.5s0.7-1.5,1.5-1.5h23c0.8,0,1.5,0.7,1.5,1.5S69.3,149,68.5,149z"/>
	<path class="st3" d="M1338.8,384h-21.5c-0.2,0-0.3-0.3-0.1-0.4l1.8-1.3c1.9-1.4,2.9-3.9,2.3-6.3h13.6v0c-0.6,2.4,0.4,4.9,2.3,6.3
		l1.8,1.3C1339.1,383.7,1339,384,1338.8,384L1338.8,384z"/>
	<path class="st4" d="M1338.8,384h-21.5c-0.2,0-0.3-0.3-0.1-0.4l1.8-1.3c1.9-1.4,2.9-3.9,2.3-6.3h13.6v0c-0.6,2.4,0.4,4.9,2.3,6.3
		l1.8,1.3C1339.1,383.7,1339,384,1338.8,384L1338.8,384z"/>
	<path class="st3" d="M1353.5,376h-51c-1.9,0-3.5-1.6-3.5-3.5c0,0,0,0,0,0v-37c0-1.9,1.6-3.5,3.5-3.5l0,0h51c1.9,0,3.5,1.6,3.5,3.5
		v0v37C1357,374.4,1355.4,376,1353.5,376C1353.5,376,1353.5,376,1353.5,376z"/>
	<path class="st4" d="M1353.5,376h-51c-1.9,0-3.5-1.6-3.5-3.5c0,0,0,0,0,0v-37c0-1.9,1.6-3.5,3.5-3.5l0,0h51c1.9,0,3.5,1.6,3.5,3.5
		v0v37C1357,374.4,1355.4,376,1353.5,376C1353.5,376,1353.5,376,1353.5,376z"/>
	<path class="st3" d="M1357,367h-58v-31.5c0-1.9,1.6-3.5,3.5-3.5l0,0h51c1.9,0,3.5,1.6,3.5,3.5v0L1357,367L1357,367z"/>
	<path class="st4" d="M1357,367h-58v-31.5c0-1.9,1.6-3.5,3.5-3.5l0,0h51c1.9,0,3.5,1.6,3.5,3.5v0L1357,367L1357,367z M1303,340l4-4
		 M1303,345l2-2 M1309,339l3-3 M1303,350l9-9 M1316,337l1-1"/>
	<path class="st3" d="M1339.5,387h-23c-0.8,0-1.5-0.7-1.5-1.5s0.7-1.5,1.5-1.5h23c0.8,0,1.5,0.7,1.5,1.5S1340.3,387,1339.5,387z"/>
	<path class="st4" d="M1339.5,387h-23c-0.8,0-1.5-0.7-1.5-1.5s0.7-1.5,1.5-1.5h23c0.8,0,1.5,0.7,1.5,1.5S1340.3,387,1339.5,387z"/>
	<path class="st3" d="M873,62c0,8.3-6.7,15-15,15s-15-6.7-15-15s6.7-15,15-15S873,53.7,873,62z"/>
	<path class="st1" d="M873,62c0,8.3-6.7,15-15,15s-15-6.7-15-15s6.7-15,15-15S873,53.7,873,62z"/>
	<path class="st3" d="M858,32v15c6.9,0,12.7,4.7,14.4,11H884V32H858z"/>
	<path class="st8" d="M858,32v15c6.9,0,12.7,4.7,14.4,11H884V32H858z"/>
	<path class="st3" d="M858,47v-3.1l-11.8-20.7L826,58h17.6C845.3,51.7,851.1,47,858,47z"/>
	<path class="st8" d="M858,47v-3.1l-11.8-20.7L826,58h17.6C845.3,51.7,851.1,47,858,47z"/>
	<path class="st9" d="M844,37c0,0.6-0.4,1-1,1s-1-0.4-1-1s0.4-1,1-1S844,36.4,844,37 M844,31c0,0.6-0.4,1-1,1s-1-0.4-1-1s0.4-1,1-1
		S844,30.4,844,31 M841,34c0,0.6-0.4,1-1,1s-1-0.4-1-1s0.4-1,1-1S841,33.4,841,34 M847,28c0,0.6-0.4,1-1,1s-1-0.4-1-1s0.4-1,1-1
		S847,27.4,847,28 M847,34c0,0.6-0.4,1-1,1s-1-0.4-1-1s0.4-1,1-1S847,33.4,847,34 M850,37c0,0.6-0.4,1-1,1s-1-0.4-1-1s0.4-1,1-1
		S850,36.4,850,37 M850,31c0,0.6-0.4,1-1,1s-1-0.4-1-1s0.4-1,1-1S850,30.4,850,31 M853,34c0,0.6-0.4,1-1,1s-1-0.4-1-1s0.4-1,1-1
		S853,33.4,853,34 M844,49c0,0.6-0.4,1-1,1s-1-0.4-1-1s0.4-1,1-1S844,48.4,844,49 M838,43c0,0.6-0.4,1-1,1s-1-0.4-1-1s0.4-1,1-1
		S838,42.4,838,43 M844,43c0,0.6-0.4,1-1,1s-1-0.4-1-1s0.4-1,1-1S844,42.4,844,43 M841,40c0,0.6-0.4,1-1,1s-1-0.4-1-1s0.4-1,1-1
		S841,39.4,841,40 M835,46c0,0.6-0.4,1-1,1s-1-0.4-1-1s0.4-1,1-1S835,45.4,835,46 M838,49c0,0.6-0.4,1-1,1s-1-0.4-1-1s0.4-1,1-1
		S838,48.4,838,49 M841,46c0,0.6-0.4,1-1,1s-1-0.4-1-1s0.4-1,1-1S841,45.4,841,46 M847,40c0,0.6-0.4,1-1,1s-1-0.4-1-1s0.4-1,1-1
		S847,39.4,847,40 M847,46c0,0.6-0.4,1-1,1s-1-0.4-1-1s0.4-1,1-1S847,45.4,847,46 M850,49c0,0.6-0.4,1-1,1s-1-0.4-1-1s0.4-1,1-1
		S850,48.4,850,49 M850,43c0,0.6-0.4,1-1,1s-1-0.4-1-1s0.4-1,1-1S850,42.4,850,43 M853,40c0,0.6-0.4,1-1,1s-1-0.4-1-1s0.4-1,1-1
		S853,39.4,853,40 M853,46c0,0.6-0.4,1-1,1s-1-0.4-1-1s0.4-1,1-1S853,45.4,853,46 M856,43c0,0.6-0.4,1-1,1s-1-0.4-1-1s0.4-1,1-1
		S856,42.4,856,43 M832,55c0,0.6-0.4,1-1,1s-1-0.4-1-1s0.4-1,1-1S832,54.4,832,55 M829,58c0,0.6-0.4,1-1,1s-1-0.4-1-1s0.4-1,1-1
		S829,57.4,829,58 M835,52c0,0.6-0.4,1-1,1s-1-0.4-1-1s0.4-1,1-1S835,51.4,835,52 M838,55c0,0.6-0.4,1-1,1s-1-0.4-1-1s0.4-1,1-1
		S838,54.4,838,55 M844,55c0,0.6-0.4,1-1,1s-1-0.4-1-1s0.4-1,1-1S844,54.4,844,55 M841,52c0,0.6-0.4,1-1,1s-1-0.4-1-1s0.4-1,1-1
		S841,51.4,841,52 M835,58c0,0.6-0.4,1-1,1s-1-0.4-1-1s0.4-1,1-1S835,57.4,835,58 M841,58c0,0.6-0.4,1-1,1s-1-0.4-1-1s0.4-1,1-1
		S841,57.4,841,58 M847,52c0,0.6-0.4,1-1,1s-1-0.4-1-1s0.4-1,1-1S847,51.4,847,52"/>
	<path class="st3" d="M884,204h42v-42h-42V204z"/>
	<path class="st7" d="M884,204h42v-42h-42V204z"/>
	<path class="st10" d="M934,183l-29,29l-29-29l29-29L934,183z"/>
	<path class="st7" d="M932,162c0-3.3-2.7-6-6-6 M930,161l2,1l2-2"/>
	<path class="st7" d="M928,154l-2,2l1,2 M878,204c0,3.3,2.7,6,6,6"/>
	<path class="st7" d="M880,205l-2-1l-2,2 M882,212l2-2l-1-2"/>
	<path class="st3" d="M618,139h44v44h-44V139z"/>
	<path class="st7" d="M618,139h44v44h-44V139z"/>
	<path class="st3" d="M676,169l-14,14v-44l14-14V169z"/>
	<path class="st7" d="M676,169l-14,14v-44l14-14V169z"/>
	<path class="st11" d="M632,139v30h30"/>
	<path class="st3" d="M662,139h-44l14-14h44L662,139z"/>
	<path class="st7" d="M662,139h-44l14-14h44L662,139z"/>
	<path class="st11" d="M618,183l14-14"/>
	<path class="st3" d="M445.4,25.9l9.9,9.9l-3,3c-2.6,2.6-2.6,6.9,0,9.6l2.3,2.3L424.2,57l6.4-30.4l2.3,2.3c2.6,2.6,6.9,2.6,9.6,0
		c0,0,0,0,0,0L445.4,25.9L445.4,25.9z"/>
	<path class="st4" d="M445.4,25.9l9.9,9.9l-3,3c-2.6,2.6-2.6,6.9,0,9.6l2.3,2.3L424.2,57l6.4-30.4l2.3,2.3c2.6,2.6,6.9,2.6,9.6,0
		c0,0,0,0,0,0L445.4,25.9L445.4,25.9z M424.2,57l15.6-15.6"/>
	<path class="st3" d="M449,22.4l9.9,9.9l-3.5,3.5l-9.9-9.9L449,22.4z"/>
	<path class="st4" d="M449,22.4l9.9,9.9l-3.5,3.5l-9.9-9.9L449,22.4z"/>
	<path class="st3" d="M453.9,20.2l7.1,7.1l-3.5,3.5l-7.1-7.1L453.9,20.2z"/>
	<path class="st7" d="M453.9,20.2l7.1,7.1l-3.5,3.5l-7.1-7.1L453.9,20.2z"/>
	<path class="st3" d="M439.8,37.2c1.2-1.2,3.1-1.2,4.2,0c1.2,1.2,1.2,3.1,0,4.2s-3.1,1.2-4.2,0C438.6,40.3,438.6,38.4,439.8,37.2
		L439.8,37.2z"/>
	<path class="st4" d="M439.8,37.2c1.2-1.2,3.1-1.2,4.2,0c1.2,1.2,1.2,3.1,0,4.2s-3.1,1.2-4.2,0C438.6,40.3,438.6,38.4,439.8,37.2
		L439.8,37.2z M423,63.8c10.2,8.8,23.5,14.2,38,14.2 M403,20c0,14.5,5.3,27.7,14,37.8"/>
	<path class="st3" d="M417,58h6v6h-6V58z"/>
	<path class="st7" d="M417,58h6v6h-6V58z"/>
	<path class="st3" d="M631.4,415.9l9.9,9.9l-3,3c-2.6,2.6-2.6,6.9,0,9.6l2.3,2.3l-30.4,6.4l6.4-30.4l2.3,2.3c2.6,2.6,6.9,2.6,9.6,0
		c0,0,0,0,0,0L631.4,415.9z"/>
	<path class="st4" d="M631.4,415.9l9.9,9.9l-3,3c-2.6,2.6-2.6,6.9,0,9.6l2.3,2.3l-30.4,6.4l6.4-30.4l2.3,2.3c2.6,2.6,6.9,2.6,9.6,0
		c0,0,0,0,0,0L631.4,415.9z M610.2,447l15.6-15.6"/>
	<path class="st3" d="M635,412.4l9.9,9.9l-3.5,3.5l-9.9-9.9L635,412.4z"/>
	<path class="st4" d="M635,412.4l9.9,9.9l-3.5,3.5l-9.9-9.9L635,412.4z"/>
	<path class="st3" d="M639.9,410.2l7.1,7.1l-3.5,3.5l-7.1-7.1L639.9,410.2z"/>
	<path class="st7" d="M639.9,410.2l7.1,7.1l-3.5,3.5l-7.1-7.1L639.9,410.2z"/>
	<path class="st3" d="M625.8,427.2c1.2-1.2,3.1-1.2,4.2,0c1.2,1.2,1.2,3.1,0,4.2s-3.1,1.2-4.2,0
		C624.6,430.3,624.6,428.4,625.8,427.2L625.8,427.2z"/>
	<path class="st4" d="M625.8,427.2c1.2-1.2,3.1-1.2,4.2,0c1.2,1.2,1.2,3.1,0,4.2s-3.1,1.2-4.2,0
		C624.6,430.3,624.6,428.4,625.8,427.2L625.8,427.2z M609,453.8c10.2,8.8,23.5,14.2,38,14.2 M589,410c0,14.5,5.3,27.7,14,37.8"/>
	<path class="st3" d="M603,448h6v6h-6V448z"/>
	<path class="st7" d="M603,448h6v6h-6V448z"/>
	<path class="st3" d="M515,249c0-1.7-1.3-3-3-3s-3,1.3-3,3l0,0c0,1.7,1.3,3,3,3S515,250.7,515,249"/>
	<path class="st7" d="M515,249c0-1.7-1.3-3-3-3s-3,1.3-3,3l0,0c0,1.7,1.3,3,3,3S515,250.7,515,249z"/>
	<path class="st3" d="M509,249c0-1,0.5-1.9,1.2-2.4L496,225h29c0-15.9-13.1-29-29-29s-29,13.1-29,29s13.1,29,29,29
		c4.7,0,9.3-1.2,13.5-3.4C509.2,250.2,509,249.6,509,249"/>
	<path class="st7" d="M509,249c0-1,0.5-1.9,1.2-2.4L496,225h29c0-15.9-13.1-29-29-29s-29,13.1-29,29s13.1,29,29,29
		c4.7,0,9.3-1.2,13.5-3.4C509.2,250.2,509,249.6,509,249z"/>
	<path class="st10" d="M503.7,236.7c3.8-2.5,6.3-6.8,6.3-11.7h-14L503.7,236.7z"/>
	<path class="st3" d="M1074,192h-43c-1.1,0-2,0.9-2,2v10c0,1.1,0.9,2,2,2v7c0,1.7,1.3,3,3,3s3-1.3,3-3v8c0,1.7,1.3,3,3,3s3-1.3,3-3
		l0,0v-10.5c0,1.4,1.1,2.5,2.5,2.5s2.5-1.1,2.5-2.5V206h26c1.1,0,2-0.9,2-2v-10C1076,192.9,1075.1,192,1074,192"/>
	<path class="st7" d="M1074,192h-43c-1.1,0-2,0.9-2,2v10c0,1.1,0.9,2,2,2v7c0,1.7,1.3,3,3,3s3-1.3,3-3v8c0,1.7,1.3,3,3,3s3-1.3,3-3
		l0,0v-10.5c0,1.4,1.1,2.5,2.5,2.5s2.5-1.1,2.5-2.5V206h26c1.1,0,2-0.9,2-2v-10C1076,192.9,1075.1,192,1074,192z"/>
	<path class="st7" d="M1052,225v-7c0-1.6,1.3-3,3-3c0,0,0,0,0,0c0,0,21.1-1.8,22-2c2.3-0.5,4-2.6,4-5v-4c0-2.8-2.2-5-5-5 M1029,199
		h-2 M1048,241h3 M1048,245h3 M1033,202l5-6 M1040,202l5-6 M1047,202l5-6 M1054,202l5-6 M1061,202l5-6 M1067,202l5-6"/>
	<path class="st3" d="M1059,225h-14l1,5h2v16c0,2.2,1.8,4,4,4s4-1.8,4-4v-16h2L1059,225z"/>
	<path class="st7" d="M1059,225h-14l1,5h2v16c0,2.2,1.8,4,4,4s4-1.8,4-4v-16h2L1059,225z"/>
	<path class="st12" d="M1037,210v3"/>
	<path class="st7" d="M1037,210v3 M1043,209v2"/>
	<g transform="translate(1)">
		<path class="st1" d="M0,15.5V3c0-1.7,1.3-3,3-3h1 M22,15.5V3c0-1.7-1.3-3-3-3h-1"/>
		<path class="st2" d="M9,15c0-1.1,0.9-2,2-2s2,0.9,2,2"/>
		<circle class="st2" cx="4.5" cy="15.5" r="4.5"/>
		<circle class="st2" cx="17.5" cy="15.5" r="4.5"/>
	</g>
	<g transform="translate(173 428)">
		<path class="st2" d="M18,22H2c-1.1,0-2-0.9-2-2V2c0-1.1,0.9-2,2-2h16c1.1,0,2,0.9,2,2v18C20,21.1,19.1,22,18,22z"/>
		<circle class="st6" cx="10" cy="18" r="1"/>
	</g>
	<path class="st7" d="M666,56V10"/>
	<path class="st3" d="M665.8,55.9L641,48V2l25,8v45.8C666,55.9,665.9,55.9,665.8,55.9C665.8,55.9,665.8,55.9,665.8,55.9"/>
	<path class="st7" d="M665.8,55.9L641,48V2l25,8v45.8C666,55.9,665.9,55.9,665.8,55.9C665.8,55.9,665.8,55.9,665.8,55.9L665.8,55.9z
		 M646,14.5l7,2.8 M646,20l15,5.5 M646,26l15,5.5 M646,32l15,5.5 M646,38l15,5.5"/>
	<path class="st3" d="M666.2,55.9L691,48V2l-25,8v45.8C666,55.9,666.1,55.9,666.2,55.9C666.2,55.9,666.2,55.9,666.2,55.9"/>
	<path class="st7" d="M666.2,55.9L691,48V2l-25,8v45.8C666,55.9,666.1,55.9,666.2,55.9C666.2,55.9,666.2,55.9,666.2,55.9L666.2,55.9
		z"/>
	<path class="st3" d="M691,10v38l-24.8,7.9c-0.1,0-0.2,0-0.2-0.1c0,0,0,0,0,0c0,0.1-0.1,0.1-0.1,0.1c0,0,0,0,0,0L641,48V10h-3.5
		c-0.3,0-0.5,0.2-0.5,0.5v45.1c0,0.3,0.2,0.5,0.5,0.5h57c0.3,0,0.5-0.2,0.5-0.5v-45c0-0.3-0.2-0.5-0.5-0.5C694.5,10,691,10,691,10z"
		/>
	<path class="st7" d="M691,10v38l-24.8,7.9c-0.1,0-0.2,0-0.2-0.1c0,0,0,0,0,0c0,0.1-0.1,0.1-0.1,0.1c0,0,0,0,0,0L641,48V10h-3.5
		c-0.3,0-0.5,0.2-0.5,0.5v45.1c0,0.3,0.2,0.5,0.5,0.5h57c0.3,0,0.5-0.2,0.5-0.5v-45c0-0.3-0.2-0.5-0.5-0.5C694.5,10,691,10,691,10z
		 M686,14l-15,5.5 M686,20l-15,5.5 M686,26l-15,5.5 M686,32l-15,5.5 M686,38l-15,5.5 M815,364v-46"/>
	<path class="st3" d="M814.8,363.9L790,356v-46l25,8v45.8C815,363.9,814.9,364,814.8,363.9C814.8,364,814.8,363.9,814.8,363.9"/>
	<path class="st7" d="M814.8,363.9L790,356v-46l25,8v45.8C815,363.9,814.9,364,814.8,363.9C814.8,364,814.8,363.9,814.8,363.9z
		 M795,322.5l7,2.8 M795,328l15,5.5 M795,334l15,5.5 M795,340l15,5.5 M795,346l15,5.5"/>
	<path class="st3" d="M815.2,363.9L840,356v-46l-25,8v45.8C815,363.9,815.1,364,815.2,363.9C815.2,364,815.2,363.9,815.2,363.9"/>
	<path class="st7" d="M815.2,363.9L840,356v-46l-25,8v45.8C815,363.9,815.1,364,815.2,363.9C815.2,364,815.2,363.9,815.2,363.9z"/>
	<path class="st3" d="M840,318v38l-24.8,7.9c-0.1,0-0.2,0-0.2-0.1c0,0,0,0,0,0c0,0.1-0.1,0.1-0.1,0.1c0,0,0,0,0,0L790,356v-38h-3.5
		c-0.3,0-0.5,0.2-0.5,0.5v45c0,0.3,0.2,0.5,0.5,0.5h57c0.3,0,0.5-0.2,0.5-0.5v-45c0-0.3-0.2-0.5-0.5-0.5H840z"/>
	<path class="st7" d="M840,318v38l-24.8,7.9c-0.1,0-0.2,0-0.2-0.1c0,0,0,0,0,0c0,0.1-0.1,0.1-0.1,0.1c0,0,0,0,0,0L790,356v-38h-3.5
		c-0.3,0-0.5,0.2-0.5,0.5v45c0,0.3,0.2,0.5,0.5,0.5h57c0.3,0,0.5-0.2,0.5-0.5v-45c0-0.3-0.2-0.5-0.5-0.5H840z M835,322l-15,5.5
		 M835,328l-15,5.5 M835,334l-15,5.5 M835,340l-15,5.5 M835,346l-15,5.5"/>
	<path class="st3" d="M269,24h-30l5-14h21L269,24z"/>
	<path class="st7" d="M269,24h-30l5-14h21L269,24z"/>
	<path class="st3" d="M283,21l-14,3l-4-14l10-4L283,21z"/>
	<path class="st7" d="M283,21l-14,3l-4-14l10-4L283,21z"/>
	<path class="st3" d="M225,21l14,3l5-14l-11-4L225,21z"/>
	<path class="st7" d="M225,21l14,3l5-14l-11-4L225,21z"/>
	<path class="st3" d="M275,6l-10,4h-21l-11-4l11-2h21L275,6z"/>
	<path class="st7" d="M275,6l-10,4h-21l-11-4l11-2h21L275,6z"/>
	<path class="st3" d="M225,21l14,3l5-14l-11-4L225,21z"/>
	<path class="st7" d="M225,21l14,3l5-14l-11-4L225,21z"/>
	<path class="st3" d="M269,24h-30l-14-3l29,41l29-41L269,24z"/>
	<path class="st7" d="M269,24h-30l-14-3l29,41l29-41L269,24z M239,24l15,38 M269,24l-15,38"/>
	<g>
		<path class="st2" d="M1177,275v11l-4-3l-4,3v-11"/>
		<path class="st2" d="M1165,275h20v22h-20V275z"/>
	</g>
	<g>
		<path class="st2" d="M470,321h13c1.1,0,2,0.9,2,2v18c0,1.1-0.9,2-2,2h-13 M467,321h3v22h-3V321z"/>
		<path class="st2" d="M474,325h7v4h-7V325z M474,332h7 M474,335h3 M487,324v2 M487,329v2"/>
	</g>
	<g>
		<path class="st2" d="M775,440v-3h8v3 M777,451h-9v-11h22v11h-9 M789,451v6h-20v-6"/>
		<path class="st2" d="M777,449h4v4h-4V449z"/>
	</g>
	<g>
		<path class="st2" d="M1218,464h12 M1213,444h22v16h-22V444z"/>
		<path class="st2" d="M1222,448l6,4l-6,4V448z"/>
	</g>
	<g transform="translate(456 126)">
		<path class="st2" d="M11,22v-4 M5,22h12"/>
		<circle class="st13" cx="11" cy="4" r="1"/>
		<path class="st2" d="M20,18H2c-1.1,0-2-0.9-2-2V2c0-1.1,0.9-2,2-2h18c1.1,0,2,0.9,2,2v14C22,17.1,21.1,18,20,18z M0,14h22"/>
	</g>
	<g transform="translate(35 431)">
		<path class="st2" d="M11,22v-4 M5,22h12"/>
		<circle class="st13" cx="11" cy="4" r="1"/>
		<path class="st2" d="M20,18H2c-1.1,0-2-0.9-2-2V2c0-1.1,0.9-2,2-2h18c1.1,0,2,0.9,2,2v14C22,17.1,21.1,18,20,18z M0,14h22"/>
	</g>
	<g>
		<path class="st1" d="M1057,130.1l-4,2.9v12h22v-12l-4-2.9"/>
		<path class="st1" d="M1057,135.2V123h14v12.2 M1053,133l22,12 M1075,133l-11,6"/>
		<path class="st2" d="M1062,128l-2,2l2,2 M1066,128l2,2l-2,2"/>
	</g>
	<g>
		<path class="st1" d="M301,311l-15,12v7l3.6-4.3"/>
		<path class="st2" d="M281,319l20-8l-4,20L281,319z"/>
	</g>
	<g>
		<path class="st2" d="M1380,132l-7,7l-7-7"/>
		<path class="st2" d="M1362,128h22v18h-22V128z M1368,140l-2,2 M1378,140l2,2"/>
	</g>
	<g>
		<path class="st2" d="M317,458l-7,7l-7-7"/>
		<path class="st2" d="M299,454h22v18h-22V454z M305,466l-2,2 M315,466l2,2"/>
	</g>
	<g>
		<path class="st2" d="M952,315l-7,7l-7-7"/>
		<path class="st2" d="M934,311h22v18h-22V311z M940,323l-2,2 M950,323l2,2"/>
	</g>
	<g>
		<path class="st1" d="M777.9,48.3L776,52h-2l-1.9-3.7 M772,56l2-4 M776,52l2,4"/>
		<path class="st1" d="M771.7,48H771c-3.9,0-7,3.1-7,7v1h22v-1c0-3.9-3.1-7-7-7h-0.7 M769,40.8c1,0.7,2.2,1.2,3.5,1.2
			c2.2,0,4.1-1.3,5-3.2c0.7,1.5,1.9,2.6,3.5,3"/>
		<path class="st2" d="M775,49c-3.3,0-6-2.7-6-6v-3c0-3.3,2.7-6,6-6s6,2.7,6,6v3C781,46.3,778.3,49,775,49z"/>
	</g>
	<path class="st2" d="M554,9.6l3,6.4h6.4l-4.7,4.9l1.9,7.5l-6.6-3.8l-6.6,3.8l1.9-7.5l-4.7-4.9h6.4L554,9.6z"/>
	<g transform="translate(1388 204)">
		<path class="st1" d="M19,3.5c-1.9,2-3,4.6-3,7.5s1.1,5.6,3,7.5 M3,3.5c1.9,2,3,4.6,3,7.5s-1.1,5.6-3,7.5 M11,0v22 M22,11H0"/>
		<circle class="st2" cx="11" cy="11" r="11"/>
	</g>
	<g transform="translate(562 161)">
		<circle class="st2" cx="8" cy="11" r="8"/>
		<path class="st2" d="M8,8v3h3 M2,2V0h12v2 M2,20v2h12v-2"/>
	</g>
	<g>
		<path class="st2" d="M1093,38h18v12h-18V38z M1097,34v4 M1107,34v4"/>
		<path class="st2" d="M1089,56V34h22"/>
	</g>
	<g>
		<path class="st2" d="M938,439h18v12h-18V439z M942,435v4 M952,435v4"/>
		<path class="st2" d="M934,457v-22h22"/>
	</g>
</g>
</svg>
