<?xml version="1.0" encoding="utf-8"?>
<!-- Generator: Adobe Illustrator 24.3.0, SVG Export Plug-In . SVG Version: 6.00 Build 0)  -->
<svg version="1.1" xmlns="http://www.w3.org/2000/svg" xmlns:xlink="http://www.w3.org/1999/xlink" x="0px" y="0px"
	 viewBox="0 0 524.32 139.91" style="enable-background:new 0 0 524.32 139.91;" xml:space="preserve">
<style type="text/css">
	.st0{stroke:#000000;stroke-width:0.25;stroke-miterlimit:10;}
	.st1{fill:none;}
	.st2{stroke:#000000;stroke-width:0.5;stroke-miterlimit:10;}
</style>
<g id="Layer_1">
</g>
<g id="Layer_1_copy_3">
	<g>
		<path d="M110.45,46.79c-0.47-0.47-1.03-0.84-1.68-1.12c-0.65-0.28-1.34-0.42-2.08-0.42c-0.72,0-1.39,0.14-2.03,0.42
			c-0.64,0.28-1.19,0.65-1.66,1.12c-0.47,0.47-0.84,1.03-1.12,1.68c-0.28,0.65-0.42,1.34-0.42,2.08c0,0.72,0.14,1.39,0.42,2.01
			c0.28,0.63,0.65,1.17,1.12,1.64c0.47,0.47,1.02,0.84,1.66,1.12c0.64,0.28,1.31,0.42,2.03,0.42c0.74,0,1.43-0.14,2.08-0.42
			c0.65-0.28,1.21-0.65,1.68-1.12c0.47-0.47,0.84-1.02,1.12-1.64c0.28-0.63,0.42-1.3,0.42-2.01c0-0.74-0.14-1.43-0.42-2.08
			C111.29,47.82,110.92,47.26,110.45,46.79z"/>
		<g>
			<path class="st0" d="M376.01,116.41l0.68-0.94c1.55,1.21,3.41,2.05,6.34,2.05c2.86,0,4.32-1.29,4.32-2.76
				c0-1.27-0.49-2.28-4.93-3.17c-3.55-0.71-5.58-1.86-5.58-3.92c0-2.02,1.71-3.72,5.46-3.72c1.88,0,4.03,0.74,5.37,1.72l-0.7,0.93
				c-1.25-0.92-2.86-1.55-4.77-1.55c-3.05,0-4.03,1.24-4.03,2.55c0,1.48,1.43,2.21,4.6,2.87c4.84,1.02,5.91,2.14,5.91,4.22
				c0,2.11-2.1,3.95-5.78,3.95C380.04,118.63,377.67,117.59,376.01,116.41z"/>
			<path class="st0" d="M398.18,113.05v-7.63h-4.23v-1l4.26-0.12l0.17-4.63h1.1v4.63h7.44v1.12h-7.44v7.73
				c0,2.73,0.78,4.35,3.9,4.35c1.46,0,2.59-0.28,3.72-0.73l0.35,0.99c-1.28,0.51-2.54,0.87-4.26,0.87
				C399.35,118.63,398.18,116.37,398.18,113.05z"/>
			<path class="st0" d="M412.13,113v-8.71h1.3v8.54c0,3.12,1.16,4.63,3.94,4.63c1.97,0,3.44-0.99,5.35-3.17v-10.01h1.3v13.99h-1.1
				l-0.14-2.71h-0.12c-1.51,1.77-3.26,3.06-5.51,3.06C413.76,118.63,412.13,116.79,412.13,113z"/>
			<path class="st0" d="M429.57,111.31c0-4.52,3.1-7.37,6.58-7.37c1.75,0,3.19,0.73,4.59,1.98h0.06l-0.07-2.83v-9.26h1.29v24.44
				h-1.09l-0.14-2.08h-0.07c-1.23,1.28-3.02,2.43-4.99,2.43C432.06,118.63,429.57,116.03,429.57,111.31z M440.73,114.92v-7.77
				c-1.58-1.49-3.03-2.06-4.49-2.06c-2.95,0-5.32,2.71-5.32,6.22c0,3.72,1.87,6.17,4.99,6.17
				C437.55,117.48,439.17,116.57,440.73,114.92z"/>
			<path class="st0" d="M455.44,105.41h-7v-1.12h8.29v13.99h-1.3V105.41z M454.41,99.5c0-0.85,0.61-1.4,1.37-1.4
				c0.77,0,1.37,0.55,1.37,1.4c0,0.86-0.6,1.4-1.37,1.4C455.02,100.89,454.41,100.36,454.41,99.5z"/>
			<path class="st0" d="M465.56,109.8c0-5.66,3.76-8.9,8.18-8.9c4.43,0,8.19,3.25,8.19,8.9c0,5.59-3.76,8.83-8.19,8.83
				C469.32,118.63,465.56,115.38,465.56,109.8z M480.29,109.8c0-4.45-2.75-7.53-6.55-7.53c-3.81,0-6.55,3.07-6.55,7.53
				c0,4.44,2.74,7.45,6.55,7.45C477.55,117.25,480.29,114.24,480.29,109.8z"/>
		</g>
		<g>
			<polygon class="st1" points="349.33,60.08 375.66,60.08 362.8,31 			"/>
			<polygon class="st1" points="210.11,66.94 240.37,25.34 210.11,25.34 			"/>
			<path class="st1" d="M118.98,28.67c-3.74-2.21-7.82-3.32-12.26-3.32s-8.52,1.11-12.26,3.32c-3.74,2.22-6.72,5.21-8.93,8.98
				c-2.22,3.77-3.32,7.9-3.32,12.38c0,4.49,1.11,8.62,3.32,12.39c2.21,3.77,5.19,6.76,8.93,8.98c3.74,2.22,7.82,3.32,12.26,3.32
				s8.51-1.11,12.26-3.32c3.74-2.21,6.7-5.21,8.89-8.98c2.19-3.77,3.28-7.9,3.28-12.39c0-4.49-1.09-8.62-3.28-12.38
				C125.68,33.87,122.72,30.88,118.98,28.67z"/>
			<path class="st0" d="M59.34,50.89c-1.04-0.57-2.3-1.06-3.8-1.47c-1.5-0.4-3.05-0.72-4.66-0.95c-1.61-0.23-2.62-0.37-3.02-0.43
				c-2.3-0.29-4.19-0.56-5.65-0.82c-1.47-0.26-2.8-0.68-4.01-1.25c-1.96-0.98-3.6-2.34-4.92-4.1c-1.33-1.75-1.99-3.52-1.99-5.31
				c0-1.44,0.4-2.83,1.21-4.19c0.81-1.35,1.96-2.57,3.45-3.67c1.5-1.15,3.26-2.03,5.31-2.63c2.04-0.6,4.16-0.91,6.34-0.91
				c2.19,0,4.28,0.3,6.3,0.91c2.01,0.6,3.8,1.48,5.35,2.63c1.44,1.09,2.55,2.3,3.32,3.62c0.78,1.32,1.19,2.7,1.25,4.14l3.71-2.07
				c-0.58-3.34-2.53-6.27-5.87-8.8c-4.03-2.88-8.72-4.32-14.07-4.32c-2.65,0-5.18,0.37-7.6,1.12c-2.42,0.75-4.57,1.81-6.47,3.19
				c-1.96,1.44-3.47,3.09-4.53,4.96c-1.07,1.87-1.6,3.87-1.6,6c0,2.65,0.81,5.11,2.42,7.38c1.61,2.27,3.82,4.1,6.65,5.48
				c1.78,0.86,3.93,1.5,6.43,1.9c2.5,0.4,3.96,0.63,4.36,0.69c4.89,0.58,8.28,1.35,10.18,2.33c2.01,1.09,3.58,2.42,4.7,3.97
				s1.68,3.22,1.68,5c0,3.05-1.52,5.7-4.57,7.94c-3.16,2.36-7.05,3.54-11.65,3.54c-2.25,0-4.37-0.3-6.39-0.91
				c-2.02-0.6-3.77-1.48-5.26-2.63c-2.93-2.01-4.49-4.6-4.66-7.77l-3.71,2.07c0.69,3.51,2.68,6.47,5.96,8.89
				c1.9,1.38,4.06,2.45,6.47,3.19c2.42,0.75,4.95,1.12,7.6,1.12c5.35,0,10.04-1.44,14.07-4.32c1.96-1.44,3.45-3.12,4.49-5.05
				c1.04-1.93,1.55-3.96,1.55-6.08c0-2.47-0.73-4.79-2.2-6.95C64.05,54.21,61.99,52.39,59.34,50.89z"/>
			<path class="st0" d="M120.96,25.21c-4.37-2.56-9.12-3.84-14.24-3.84c-5.12,0-9.87,1.28-14.24,3.84
				c-4.37,2.56-7.82,6.04-10.36,10.44c-2.53,4.4-3.8,9.19-3.8,14.37c0,5.18,1.27,9.97,3.8,14.37c2.53,4.4,5.98,7.88,10.36,10.44
				c4.37,2.56,9.12,3.84,14.24,3.84c5.12,0,9.87-1.28,14.24-3.84c4.37-2.56,7.82-6.04,10.36-10.44c2.53-4.4,3.8-9.19,3.8-14.37
				c0-5.18-1.27-9.97-3.8-14.37C128.79,31.25,125.33,27.77,120.96,25.21z M127.87,62.41c-2.19,3.77-5.15,6.76-8.89,8.98
				c-3.74,2.22-7.82,3.32-12.26,3.32s-8.52-1.11-12.26-3.32c-3.74-2.21-6.72-5.21-8.93-8.98c-2.22-3.77-3.32-7.9-3.32-12.39
				c0-4.49,1.11-8.62,3.32-12.38c2.21-3.77,5.19-6.76,8.93-8.98c3.74-2.21,7.82-3.32,12.26-3.32s8.51,1.11,12.26,3.32
				c3.74,2.22,6.7,5.21,8.89,8.98c2.19,3.77,3.28,7.9,3.28,12.38C131.15,54.51,130.05,58.64,127.87,62.41z"/>
			<path class="st0" d="M186.55,56.93c0,2.42-0.44,4.72-1.34,6.9c-0.89,2.19-2.14,4.09-3.75,5.7c-1.67,1.67-3.57,2.95-5.7,3.84
				c-2.13,0.89-4.37,1.34-6.73,1.34c-2.3,0-4.52-0.44-6.65-1.34c-2.13-0.89-4.03-2.17-5.7-3.84c-1.61-1.61-2.86-3.51-3.75-5.7
				c-0.89-2.19-1.34-4.49-1.34-6.9V21.98h-3.88v34.95c0,2.93,0.53,5.73,1.6,8.37c1.06,2.65,2.6,4.95,4.62,6.9
				c2.01,2.07,4.33,3.67,6.95,4.79c2.62,1.12,5.34,1.68,8.16,1.68c2.93,0,5.7-0.56,8.28-1.68c2.59-1.12,4.89-2.72,6.91-4.79
				c2.01-1.96,3.55-4.26,4.62-6.9c1.06-2.65,1.6-5.44,1.6-8.37V21.98h-3.88V56.93z"/>
			<polygon class="st0" points="247.74,21.98 246.38,21.98 246.38,23.83 			"/>
			<polygon class="st0" points="245.28,25.34 240.37,25.34 210.11,66.94 210.11,25.34 206.23,25.34 206.23,79.02 224.35,54.17 
				244.46,78.07 249.64,78.07 226.68,50.8 			"/>
			<polygon class="st0" points="284.51,54.43 262.32,21.98 257.66,21.98 282.52,58.66 282.52,78.07 286.4,78.07 286.4,58.66 
				311.26,21.98 306.6,21.98 			"/>
			<path class="st0" d="M336.56,78.21h4.32l6.65-14.24h29.86l6.3,14.24h4.23l-24.94-56.79L336.56,78.21z M349.33,60.08L362.8,31
				l12.86,29.08H349.33z"/>
			<path class="st0" d="M423.51,53.31c1.7-0.2,3.44-0.7,5.22-1.51c2.59-1.09,4.83-2.89,6.73-5.39c1.9-2.5,2.85-5.34,2.85-8.5
				c0-2.01-0.45-3.97-1.34-5.87c-0.89-1.9-2.17-3.59-3.84-5.09c-1.73-1.55-3.74-2.75-6.04-3.58c-2.3-0.83-4.78-1.25-7.42-1.25
				h-19.59v56.1h3.88V25.99h15.71c2.93,0,5.52,0.58,7.77,1.73c2.24,1.15,3.97,2.63,5.18,4.44c1.21,1.81,1.81,3.73,1.81,5.74
				c0,2.24-0.72,4.3-2.16,6.17c-1.44,1.87-3.14,3.27-5.09,4.19c-2.65,1.09-6.1,1.64-10.36,1.64h-6.9l23.3,28.31h5.18l-20.28-24.6
				C420.02,53.61,421.81,53.51,423.51,53.31z"/>
			<polygon class="st0" points="448.5,22.11 448.5,26.08 470.76,26.08 470.76,78.21 474.73,78.21 474.73,26.08 496.91,26.08 
				496.91,22.11 			"/>
			<polygon class="st0" points="240.37,25.34 242.82,21.98 210.11,21.98 210.11,25.34 			"/>
			<polygon class="st0" points="245.28,25.34 246.38,23.83 246.38,21.98 242.82,21.98 240.37,25.34 			"/>
			<rect x="206.23" y="21.98" class="st0" width="3.88" height="3.37"/>
		</g>
		<rect x="459.07" y="48.04" width="27.26" height="4.24"/>
		<g>
			<path class="st1" d="M473.74,106.53c-1.64,0-2.83,1.33-2.83,3.25c0,1.92,1.18,3.22,2.83,3.22c1.06,0,1.89-0.58,2.37-1.48h-3.09
				V108h3.08C475.61,107.11,474.79,106.53,473.74,106.53z"/>
			<path class="st2" d="M473.74,112.99c-1.64,0-2.83-1.3-2.83-3.22c0-1.92,1.18-3.25,2.83-3.25c1.05,0,1.87,0.58,2.36,1.48h0.82
				c-0.58-1.33-1.8-2.07-3.18-2.07c-1.91,0-3.53,1.4-3.53,3.84c0,2.41,1.62,3.81,3.53,3.81c1.39,0,2.61-0.75,3.19-2.07h-0.81
				C475.63,112.41,474.8,112.99,473.74,112.99z"/>
		</g>
	</g>
</g>
</svg>
