<?xml version="1.0" encoding="utf-8"?>
<!-- Generator: Adobe Illustrator 24.3.0, SVG Export Plug-In . SVG Version: 6.00 Build 0)  -->
<svg version="1.1" id="Layer_1" xmlns="http://www.w3.org/2000/svg" xmlns:xlink="http://www.w3.org/1999/xlink" x="0px" y="0px"
	 viewBox="0 0 524.3 139.9" style="enable-background:new 0 0 524.3 139.9;" xml:space="preserve">
<style type="text/css">
	.st0{fill:#FFFFFF;}
	.st1{fill:#FFFFFF;stroke:#FFFFFF;stroke-width:0.25;stroke-miterlimit:10;}
	.st2{fill:#FFFFFF;stroke:#FFFFFF;stroke-miterlimit:10;}
	.st3{fill:#FFFFFF;stroke:#FFFFFF;stroke-width:0.5;stroke-miterlimit:10;}
</style>
<g id="Layer_1_1_">
</g>
<g id="Layer_1_copy_3">
	<g>
		<path class="st0" d="M110.5,45.4c-0.5-0.5-1-0.8-1.7-1.1s-1.3-0.4-2.1-0.4c-0.7,0-1.4,0.1-2,0.4s-1.2,0.7-1.7,1.1
			c-0.5,0.5-0.8,1-1.1,1.7c-0.3,0.7-0.4,1.3-0.4,2.1c0,0.7,0.1,1.4,0.4,2c0.3,0.6,0.7,1.2,1.1,1.6s1,0.8,1.7,1.1
			c0.6,0.3,1.3,0.4,2,0.4c0.7,0,1.4-0.1,2.1-0.4s1.2-0.7,1.7-1.1c0.5-0.5,0.8-1,1.1-1.6c0.3-0.6,0.4-1.3,0.4-2
			c0-0.7-0.1-1.4-0.4-2.1S110.9,45.9,110.5,45.4z"/>
		<g>
			<path class="st1" d="M376,115l0.7-0.9c1.5,1.2,3.4,2.1,6.3,2.1c2.9,0,4.3-1.3,4.3-2.8c0-1.3-0.5-2.3-4.9-3.2
				c-3.5-0.7-5.6-1.9-5.6-3.9c0-2,1.7-3.7,5.5-3.7c1.9,0,4,0.7,5.4,1.7l-0.7,0.9c-1.2-0.9-2.9-1.6-4.8-1.6c-3,0-4,1.2-4,2.6
				c0,1.5,1.4,2.2,4.6,2.9c4.8,1,5.9,2.1,5.9,4.2c0,2.1-2.1,3.9-5.8,3.9C380.1,117.3,377.7,116.2,376,115z"/>
			<path class="st1" d="M398.2,111.7V104H394v-1l4.3-0.1l0.2-4.6h1.1v4.6h7.4v1.1h-7.4v7.7c0,2.7,0.8,4.3,3.9,4.3
				c1.5,0,2.6-0.3,3.7-0.7l0.4,1c-1.3,0.5-2.5,0.9-4.3,0.9C399.4,117.3,398.2,115,398.2,111.7z"/>
			<path class="st1" d="M412.1,111.6v-8.7h1.3v8.5c0,3.1,1.2,4.6,3.9,4.6c2,0,3.4-1,5.4-3.2v-10h1.3v14h-1.1l-0.1-2.7h-0.1
				c-1.5,1.8-3.3,3.1-5.5,3.1C413.8,117.3,412.1,115.4,412.1,111.6z"/>
			<path class="st1" d="M429.6,109.9c0-4.5,3.1-7.4,6.6-7.4c1.8,0,3.2,0.7,4.6,2h0.1l-0.1-2.8v-9.3h1.3v24.4h-1.1l-0.1-2.1h-0.1
				c-1.2,1.3-3,2.4-5,2.4C432.1,117.3,429.6,114.7,429.6,109.9z M440.7,113.5v-7.8c-1.6-1.5-3-2.1-4.5-2.1c-3,0-5.3,2.7-5.3,6.2
				c0,3.7,1.9,6.2,5,6.2C437.6,116.1,439.2,115.2,440.7,113.5z"/>
			<path class="st1" d="M455.5,104h-7v-1.1h8.3v14h-1.3L455.5,104L455.5,104z M454.4,98.1c0-0.8,0.6-1.4,1.4-1.4
				c0.8,0,1.4,0.6,1.4,1.4c0,0.9-0.6,1.4-1.4,1.4C455,99.5,454.4,99,454.4,98.1z"/>
			<path class="st1" d="M465.6,108.4c0-5.7,3.8-8.9,8.2-8.9c4.4,0,8.2,3.2,8.2,8.9c0,5.6-3.8,8.8-8.2,8.8
				C469.3,117.3,465.6,114,465.6,108.4z M480.3,108.4c0-4.4-2.8-7.5-6.5-7.5c-3.8,0-6.5,3.1-6.5,7.5c0,4.4,2.7,7.4,6.5,7.4
				C477.6,115.9,480.3,112.9,480.3,108.4z"/>
		</g>
		<g>
			<path class="st0" d="M59.4,49.5c-1-0.6-2.3-1.1-3.8-1.5c-1.5-0.4-3-0.7-4.7-1s-2.6-0.4-3-0.4c-2.3-0.3-4.2-0.6-5.7-0.8
				c-1.5-0.3-2.8-0.7-4-1.2c-2-1-3.6-2.3-4.9-4.1c-1.3-1.8-2-3.5-2-5.3c0-1.4,0.4-2.8,1.2-4.2c0.8-1.4,2-2.6,3.5-3.7
				c1.5-1.1,3.3-2,5.3-2.6c2-0.6,4.2-0.9,6.3-0.9c2.2,0,4.3,0.3,6.3,0.9c2,0.6,3.8,1.5,5.3,2.6c1.4,1.1,2.5,2.3,3.3,3.6
				c0.8,1.3,1.2,2.7,1.2,4.1l3.7-2.1c-0.6-3.3-2.5-6.3-5.9-8.8c-4-2.9-8.7-4.3-14.1-4.3c-2.7,0-5.2,0.4-7.6,1.1
				c-2.4,0.8-4.6,1.8-6.5,3.2c-2,1.4-3.5,3.1-4.5,5c-1.1,1.9-1.6,3.9-1.6,6c0,2.7,0.8,5.1,2.4,7.4s3.8,4.1,6.6,5.5
				c1.8,0.9,3.9,1.5,6.4,1.9s4,0.6,4.4,0.7c4.9,0.6,8.3,1.3,10.2,2.3c2,1.1,3.6,2.4,4.7,4s1.7,3.2,1.7,5c0,3.1-1.5,5.7-4.6,7.9
				c-3.2,2.4-7,3.5-11.6,3.5c-2.2,0-4.4-0.3-6.4-0.9c-2-0.6-3.8-1.5-5.3-2.6c-2.9-2-4.5-4.6-4.7-7.8l-3.7,2.1c0.7,3.5,2.7,6.5,6,8.9
				c1.9,1.4,4.1,2.4,6.5,3.2c2.4,0.8,5,1.1,7.6,1.1c5.3,0,10-1.4,14.1-4.3c2-1.4,3.5-3.1,4.5-5.1s1.6-4,1.6-6.1c0-2.5-0.7-4.8-2.2-7
				C64.1,52.8,62,51,59.4,49.5z"/>
			<path class="st0" d="M121,23.8c-4.4-2.6-9.1-3.8-14.2-3.8c-5.1,0-9.9,1.3-14.2,3.8c-4.4,2.6-7.8,6-10.4,10.4
				c-2.5,4.4-3.8,9.2-3.8,14.4s1.3,10,3.8,14.4c2.5,4.4,6,7.9,10.4,10.4c4.4,2.6,9.1,3.8,14.2,3.8c5.1,0,9.9-1.3,14.2-3.8
				c4.4-2.6,7.8-6,10.4-10.4c2.5-4.4,3.8-9.2,3.8-14.4s-1.3-10-3.8-14.4S125.3,26.4,121,23.8z M127.9,61c-2.2,3.8-5.2,6.8-8.9,9
				s-7.8,3.3-12.3,3.3s-8.5-1.1-12.3-3.3s-6.7-5.2-8.9-9c-2.2-3.8-3.3-7.9-3.3-12.4s1.1-8.6,3.3-12.4c2.2-3.8,5.2-6.8,8.9-9
				c3.7-2.2,7.8-3.3,12.3-3.3s8.5,1.1,12.3,3.3c3.7,2.2,6.7,5.2,8.9,9s3.3,7.9,3.3,12.4C131.2,53.1,130.1,57.3,127.9,61z"/>
			<path class="st0" d="M186.6,55.6c0,2.4-0.4,4.7-1.3,6.9c-0.9,2.2-2.1,4.1-3.8,5.7c-1.7,1.7-3.6,2.9-5.7,3.8
				c-2.1,0.9-4.4,1.3-6.7,1.3c-2.3,0-4.5-0.4-6.6-1.3c-2.1-0.9-4-2.2-5.7-3.8c-1.6-1.6-2.9-3.5-3.8-5.7c-0.9-2.2-1.3-4.5-1.3-6.9
				V20.6h-3.9v34.9c0,2.9,0.5,5.7,1.6,8.4c1.1,2.7,2.6,4.9,4.6,6.9c2,2.1,4.3,3.7,6.9,4.8s5.3,1.7,8.2,1.7c2.9,0,5.7-0.6,8.3-1.7
				c2.6-1.1,4.9-2.7,6.9-4.8c2-2,3.6-4.3,4.6-6.9c1.1-2.7,1.6-5.4,1.6-8.4v-35h-3.9L186.6,55.6L186.6,55.6z"/>
			<polygon class="st0" points="247.8,20.6 246.4,20.6 246.4,22.5 			"/>
			<polygon class="st0" points="245.3,24 240.4,24 210.1,65.6 210.1,24 206.2,24 206.2,77.6 224.4,52.8 244.5,76.7 249.6,76.7 
				226.7,49.4 			"/>
			<polygon class="st0" points="284.5,53.1 262.3,20.6 257.7,20.6 282.5,57.3 282.5,76.7 286.4,76.7 286.4,57.3 311.3,20.6 
				306.6,20.6 			"/>
			<path class="st0" d="M336.6,76.8h4.3l6.6-14.2h29.9l6.3,14.2h4.2L363,20L336.6,76.8z M349.3,58.7l13.5-29.1l12.9,29.1H349.3z"/>
			<path class="st0" d="M423.5,51.9c1.7-0.2,3.4-0.7,5.2-1.5c2.6-1.1,4.8-2.9,6.7-5.4c1.9-2.5,2.9-5.3,2.9-8.5c0-2-0.5-4-1.3-5.9
				c-0.9-1.9-2.2-3.6-3.8-5.1c-1.7-1.5-3.7-2.8-6-3.6c-2.3-0.8-4.8-1.2-7.4-1.2h-19.6v56.1h3.9V24.6h15.7c2.9,0,5.5,0.6,7.8,1.7
				c2.2,1.1,4,2.6,5.2,4.4c1.2,1.8,1.8,3.7,1.8,5.7c0,2.2-0.7,4.3-2.2,6.2s-3.1,3.3-5.1,4.2c-2.6,1.1-6.1,1.6-10.4,1.6h-6.9
				l23.3,28.3h5.2l-20.3-24.6C420,52.2,421.8,52.1,423.5,51.9z"/>
			<polygon class="st0" points="448.5,20.7 448.5,24.7 470.8,24.7 470.8,76.8 474.7,76.8 474.7,24.7 496.9,24.7 496.9,20.7 			"/>
			<polygon class="st0" points="240.4,24 242.8,20.6 210.1,20.6 210.1,24 			"/>
			<polygon class="st0" points="245.3,24 246.4,22.5 246.4,20.6 242.8,20.6 240.4,24 			"/>
			<rect x="206.2" y="20.6" class="st0" width="3.9" height="3.4"/>
		</g>
		<rect x="459.1" y="46.7" class="st0" width="27.3" height="4.2"/>
		<g>
			<path class="st2" d="M475.7,110.8c-0.5,0.5-1.1,0.9-1.9,0.9c-0.8,0-1.5-0.3-2-0.9c0.5,0.5,1.2,0.9,2,0.9
				C474.5,111.6,475.2,111.3,475.7,110.8z"/>
			<path class="st3" d="M476.9,110.1c-0.6,1.3-1.8,2.1-3.2,2.1c-1.9,0-3.5-1.4-3.5-3.8c0-2.4,1.6-3.8,3.5-3.8c1.4,0,2.6,0.7,3.2,2.1
				h-0.8c-0.2-0.3-0.4-0.6-0.7-0.9c-0.5-0.4-1-0.6-1.7-0.6c-0.7,0-1.4,0.2-1.8,0.7c-0.1,0.1-0.3,0.3-0.4,0.4
				c-0.1,0.1-0.1,0.2-0.2,0.3c-0.1,0.2-0.2,0.4-0.2,0.5c-0.1,0.4-0.2,0.8-0.2,1.3c0,0.5,0.1,0.9,0.2,1.3c0.1,0.2,0.2,0.4,0.2,0.5
				c0.1,0.2,0.2,0.3,0.3,0.5c0.5,0.5,1.2,0.9,2,0.9c0.8,0,1.5-0.3,1.9-0.9c0.2-0.2,0.3-0.4,0.4-0.6c0,0,0,0,0,0H476.9z"/>
		</g>
	</g>
</g>
</svg>
